<svg xmlns="http://www.w3.org/2000/svg" viewBox="0 0 900 600">
  <rect width="900" height="200" fill="#007A3D"/>
  <rect y="200" width="900" height="200" fill="#FFFFFF"/>
  <rect y="400" width="900" height="200" fill="#000000"/>
  <g fill="#CE1126">
    <polygon points="300,260 311.76,296.18 350,296.18 318.12,318.82 329.88,355 300,332.36 270.12,355 281.88,318.82 250,296.18 288.24,296.18"/>
    <polygon points="450,260 461.76,296.18 500,296.18 468.12,318.82 479.88,355 450,332.36 420.12,355 431.88,318.82 400,296.18 438.24,296.18"/>
    <polygon points="600,260 611.76,296.18 650,296.18 618.12,318.82 629.88,355 600,332.36 570.12,355 581.88,318.82 550,296.18 588.24,296.18"/>
  </g>
</svg>
